<svg xmlns="http://www.w3.org/2000/svg" viewBox="0 0 145.34 111.78"><defs><style>.cls-1{fill:#ffe926;}.cls-2{opacity:0.06;}.cls-3{font-size:40px;font-family:MyriadPro-Regular, Myriad Pro;}</style></defs><title>Asset 1</title><g id="Layer_2" data-name="Layer 2"><g id="Layer_1-2" data-name="Layer 1"><circle class="cls-1" cx="110.95" cy="34.39" r="15.9"/><path class="cls-1" d="M124.42,47.85a2.44,2.44,0,0,1,3.45,0l7.4,7.4a2.44,2.44,0,1,1-3.45,3.45l-7.4-7.39A2.44,2.44,0,0,1,124.42,47.85Z"/><path class="cls-1" d="M130.71,32.66a2.43,2.43,0,0,1,1.73-.71H142.9a2.44,2.44,0,0,1,0,4.88H132.44a2.44,2.44,0,0,1-1.73-4.17Z"/><path class="cls-1" d="M124.42,17.47l7.4-7.4a2.44,2.44,0,1,1,3.45,3.46l-7.4,7.39a2.44,2.44,0,0,1-3.45-3.45Z"/><path class="cls-1" d="M109.23.72A2.39,2.39,0,0,1,111,0a2.45,2.45,0,0,1,2.45,2.44V12.9a2.45,2.45,0,0,1-4.89,0V2.44A2.39,2.39,0,0,1,109.23.72Z"/><path class="cls-1" d="M86.64,10.07a2.44,2.44,0,0,1,3.45,0l7.4,7.4A2.44,2.44,0,1,1,94,20.92l-7.4-7.39A2.44,2.44,0,0,1,86.64,10.07Z"/><path class="cls-1" d="M77.28,32.66A2.43,2.43,0,0,1,79,32H89.47a2.44,2.44,0,0,1,0,4.88H79a2.45,2.45,0,0,1-1.73-4.17Z"/><path class="cls-1" d="M86.64,55.25l7.4-7.4a2.44,2.44,0,1,1,3.45,3.46l-7.4,7.39a2.44,2.44,0,0,1-3.45-3.45Z"/><path class="cls-1" d="M109.23,54.14a2.45,2.45,0,0,1,4.17,1.73V66.33a2.45,2.45,0,1,1-4.89,0V55.87A2.43,2.43,0,0,1,109.23,54.14Z"/><g class="cls-2"><path d="M99.71,45.63a15.89,15.89,0,0,0,22.49,0L99.71,23.14A15.9,15.9,0,0,0,99.71,45.63Z"/><path d="M124.42,51.31l7.4,7.39a2.43,2.43,0,0,0,3.45,0h0L124.42,47.85h0A2.44,2.44,0,0,0,124.42,51.31Z"/><path d="M86.64,13.53,94,20.92a2.43,2.43,0,0,0,3.45,0h0L86.64,10.07h0A2.44,2.44,0,0,0,86.64,13.53Z"/><path d="M89.47,36.83a2.44,2.44,0,0,0,0-4.88H79a2.44,2.44,0,0,0,0,4.88Z"/><path d="M90.09,58.7l7.4-7.39A2.44,2.44,0,1,0,94,47.85l-7.4,7.4a2.44,2.44,0,0,0,3.45,3.45Z"/><path d="M108.51,66.33a2.45,2.45,0,1,0,4.89,0V55.87a2.45,2.45,0,0,0-4.89,0Z"/></g><g class="cls-2"><path d="M111,50.29a15.9,15.9,0,0,0,15.91-15.9H95.05A15.9,15.9,0,0,0,111,50.29Z"/><path d="M132.44,36.83H142.9a2.44,2.44,0,0,0,2.44-2.44H130A2.45,2.45,0,0,0,132.44,36.83Z"/><path d="M79,36.83H89.47a2.44,2.44,0,0,0,2.44-2.44H76.57A2.44,2.44,0,0,0,79,36.83Z"/><path d="M97.49,51.31A2.44,2.44,0,1,0,94,47.85l-7.4,7.4a2.44,2.44,0,0,0,3.45,3.46Z"/><path d="M113.4,66.33V55.87a2.45,2.45,0,0,0-4.89,0V66.33a2.45,2.45,0,1,0,4.89,0Z"/><path d="M131.82,58.7a2.44,2.44,0,1,0,3.45-3.45l-7.4-7.4a2.44,2.44,0,1,0-3.45,3.46Z"/></g><g class="cls-2"><path d="M126.86,34.39A15.9,15.9,0,0,1,111,50.29V18.48A15.91,15.91,0,0,1,126.86,34.39Z"/><path d="M113.4,55.87V66.33A2.45,2.45,0,0,1,111,68.78h0V53.43h0A2.45,2.45,0,0,1,113.4,55.87Z"/><path d="M113.4,2.44V12.9A2.45,2.45,0,0,1,111,15.35h0V0h0A2.45,2.45,0,0,1,113.4,2.44Z"/><path d="M127.87,20.92a2.44,2.44,0,0,1-3.45-3.45l7.4-7.4a2.44,2.44,0,1,1,3.45,3.46Z"/><path d="M142.9,36.83H132.44a2.44,2.44,0,1,1,0-4.88H142.9a2.44,2.44,0,0,1,0,4.88Z"/><path d="M135.27,55.25a2.44,2.44,0,1,1-3.45,3.45l-7.4-7.39a2.44,2.44,0,0,1,3.45-3.46Z"/></g><g class="cls-2"><path d="M122.2,45.63a15.9,15.9,0,0,0,0-22.49L99.71,45.63A15.89,15.89,0,0,0,122.2,45.63Z"/><path d="M127.87,20.92l7.4-7.39a2.46,2.46,0,0,0,0-3.46h0L124.42,20.92h0A2.43,2.43,0,0,0,127.87,20.92Z"/><path d="M90.09,58.7l7.4-7.39a2.46,2.46,0,0,0,0-3.46h0L86.64,58.7h0A2.43,2.43,0,0,0,90.09,58.7Z"/><path d="M113.4,55.87a2.45,2.45,0,0,0-4.89,0V66.33a2.4,2.4,0,0,0,.72,1.73,2.44,2.44,0,0,0,4.17-1.73Z"/><path d="M135.27,55.25l-7.4-7.4a2.44,2.44,0,0,0-3.45,3.46l7.4,7.39a2.44,2.44,0,1,0,3.45-3.45Z"/><path d="M142.9,36.83a2.44,2.44,0,0,0,0-4.88H132.44A2.42,2.42,0,0,0,130,34.39a2.47,2.47,0,0,0,.71,1.73,2.43,2.43,0,0,0,1.73.71Z"/></g><text class="cls-3" transform="translate(0 97.66)">44 F°</text></g></g></svg>