<svg xmlns="http://www.w3.org/2000/svg" viewBox="0 0 88.38 53.4"><defs><style>.cls-1{fill:#d8d8d7;}.cls-2{opacity:0.06;}.cls-3{fill:#edeced;}</style></defs><title>cloudy</title><g id="Layer_2" data-name="Layer 2"><g id="Layer_1-2" data-name="Layer 1"><path class="cls-1" d="M17.86,48.71A16,16,0,0,0,31.59,36.19c.28,0,.57,0,.85-.07a15.37,15.37,0,0,0,13-11.18,11.9,11.9,0,0,0,1.78-.08A12.47,12.47,0,1,0,35,6.15,15.37,15.37,0,0,0,15.81,16.88a16.55,16.55,0,0,0-1.72.11,16,16,0,1,0,3.77,31.72Z"/><path class="cls-2" d="M58.13,11A12.47,12.47,0,0,0,35,6.15a15.41,15.41,0,0,0-12.17,1.5L34.34,35.77a15.38,15.38,0,0,0,11.1-10.83,11.9,11.9,0,0,0,1.78-.08A12.47,12.47,0,0,0,58.13,11Z"/><path class="cls-2" d="M58.13,11A12.47,12.47,0,0,0,35,6.15a15.31,15.31,0,0,0-1.78-.41l-18,43.06a16.24,16.24,0,0,0,2.69-.09A16,16,0,0,0,31.59,36.19c.28,0,.57,0,.85-.07a15.37,15.37,0,0,0,13-11.18,11.9,11.9,0,0,0,1.78-.08A12.47,12.47,0,0,0,58.13,11Z"/><path class="cls-2" d="M58.13,11A12.68,12.68,0,0,0,57,7.16L.18,30.43a16.25,16.25,0,0,0-.07,4.3,16,16,0,0,0,31.48,1.46c.28,0,.57,0,.85-.07a15.37,15.37,0,0,0,13-11.18,11.9,11.9,0,0,0,1.78-.08A12.47,12.47,0,0,0,58.13,11Z"/><path class="cls-2" d="M16.61,14.63a15.05,15.05,0,0,0-.8,2.25,16.55,16.55,0,0,0-1.72.11,16,16,0,1,0,17.5,19.2c.28,0,.57,0,.85-.07A15.33,15.33,0,0,0,44.91,26.5Z"/><path class="cls-3" d="M76,27.65a12.07,12.07,0,0,0-4.3.8A22.42,22.42,0,0,0,72,24.67c0-12.07-9.39-21.85-21-21.85-11,0-20,8.77-20.9,19.93a14,14,0,0,0-2.07-.15A14.52,14.52,0,0,0,13.94,35H11.52a9.2,9.2,0,0,0,0,18.39H76A12.63,12.63,0,0,0,88.38,40.53,12.64,12.64,0,0,0,76,27.65Z"/><path class="cls-2" d="M88.38,40.53A12.64,12.64,0,0,0,76,27.65a12.07,12.07,0,0,0-4.3.8A22.42,22.42,0,0,0,72,24.67c0-12.07-9.39-21.85-21-21.85a20.55,20.55,0,0,0-5.52.77V53.4H76A12.63,12.63,0,0,0,88.38,40.53Z"/><path class="cls-2" d="M88.38,40.53A12.64,12.64,0,0,0,76,27.65a12.07,12.07,0,0,0-4.3.8A22.48,22.48,0,0,0,65.63,9L22.94,53.4H76A12.63,12.63,0,0,0,88.38,40.53Z"/><path class="cls-2" d="M88.38,40.53A13,13,0,0,0,83,29.89H15.75A15.4,15.4,0,0,0,13.94,35H11.52a9.05,9.05,0,0,0-8.84,9.2,9.44,9.44,0,0,0,.64,3.41l.08.2a8.85,8.85,0,0,0,8.12,5.58H76A12.63,12.63,0,0,0,88.38,40.53Z"/><path class="cls-2" d="M31.91,15.72a22.56,22.56,0,0,0-1.76,7,14,14,0,0,0-2.07-.15A14.52,14.52,0,0,0,13.94,35H11.52a9.2,9.2,0,0,0,0,18.39h56.6Z"/></g></g></svg>