<svg xmlns="http://www.w3.org/2000/svg" viewBox="0 0 157.61 30.36"><defs><style>.cls-1{font-size:23px;font-family:HoodsonScript-Regular, Hoodson Script;}.cls-2{fill:#d83674;}.cls-3{fill:#ee4980;}.cls-4{fill:#dd254d;}.cls-5{fill:#ef778b;}.cls-6{fill:#bc1f37;}</style></defs><title>heart</title><g id="Layer_2" data-name="Layer 2"><g id="Layer_1-2" data-name="Layer 1"><text class="cls-1" transform="translate(0.23 21)">made with</text><text class="cls-1" transform="translate(112.6 20.53)">in nyc</text><polygon class="cls-2" points="94.09 10.18 98.87 5.29 103.63 10.18 103.63 14.94 94.08 24.07 94.09 10.18"/><polygon class="cls-3" points="94.09 10.18 89.4 5.29 84.64 10.18 84.64 14.94 94.08 24.07 94.09 10.18"/><polygon class="cls-4" points="84.64 14.94 89.4 12.94 89.4 5.29 84.64 10.18 84.64 14.94"/><polygon class="cls-5" points="94.08 24.07 94.08 18.43 89.4 12.94 84.64 14.94 94.08 24.07"/><polygon class="cls-6" points="89.4 5.29 94.09 10.18 94.09 11.96 89.4 5.29"/><polygon class="cls-4" points="103.63 14.94 98.87 12.94 98.87 5.29 103.63 10.18 103.63 14.94"/><polygon class="cls-5" points="94.08 24.07 94.08 18.43 98.87 12.94 103.63 14.94 94.08 24.07"/><polygon class="cls-6" points="98.87 5.29 94.09 10.18 94.09 11.96 98.87 5.29"/></g></g></svg>