<svg xmlns="http://www.w3.org/2000/svg" viewBox="0 0 83.76 93.53"><defs><style>.cls-1{fill:#99c8eb;}.cls-2{fill:#69a7cd;}.cls-3{fill:#e8e7e7;}.cls-4{opacity:0.06;}</style></defs><title>rainy</title><g id="Layer_2" data-name="Layer 2"><g id="Layer_1-2" data-name="Layer 1"><path class="cls-1" d="M61.9,78.26a2.14,2.14,0,0,1-.62,0,2.2,2.2,0,0,1-2-2.37l1.11-13.14a2.2,2.2,0,1,1,4.38.36L63.65,76.29A2.18,2.18,0,0,1,61.9,78.26Z"/><path class="cls-2" d="M61.9,78.26a2.18,2.18,0,0,0,1.75-2l1.11-13.14a2.2,2.2,0,0,0-2-2.37L61.27,78.3h0A2.14,2.14,0,0,0,61.9,78.26Z"/><path class="cls-1" d="M60.68,93.49a2.14,2.14,0,0,1-.62,0,2.2,2.2,0,0,1-2-2.37l.49-5.82a2.2,2.2,0,0,1,4.38.37l-.49,5.82A2.19,2.19,0,0,1,60.68,93.49Z"/><path class="cls-2" d="M60.68,93.49a2.19,2.19,0,0,0,1.75-2l.49-5.82a2.19,2.19,0,0,0-2-2.37h0L60,93.52h0A2.14,2.14,0,0,0,60.68,93.49Z"/><path class="cls-1" d="M63.74,55.72a2.22,2.22,0,0,1-2.63-2.34l1.1-13.14a2.2,2.2,0,1,1,4.38.37l-1.1,13.14A2.21,2.21,0,0,1,63.74,55.72Z"/><path class="cls-2" d="M65.49,53.75l1.1-13.14a2.2,2.2,0,0,0-2-2.37L63.12,55.75a2.14,2.14,0,0,0,.62,0A2.21,2.21,0,0,0,65.49,53.75Z"/><path class="cls-1" d="M41.5,78.26a2.14,2.14,0,0,1-.62,0,2.2,2.2,0,0,1-2-2.37L40,62.79a2.21,2.21,0,0,1,2.38-2,2.18,2.18,0,0,1,2,2.37l-1.1,13.14A2.19,2.19,0,0,1,41.5,78.26Z"/><path class="cls-2" d="M41.5,78.26a2.19,2.19,0,0,0,1.75-2l1.1-13.14a2.18,2.18,0,0,0-2-2.37L40.87,78.3h0A2.14,2.14,0,0,0,41.5,78.26Z"/><path class="cls-1" d="M40.28,93.49a2.14,2.14,0,0,1-.62,0,2.2,2.2,0,0,1-2-2.37l.49-5.82a2.2,2.2,0,0,1,4.38.37L42,91.52A2.2,2.2,0,0,1,40.28,93.49Z"/><path class="cls-2" d="M40.28,93.49a2.2,2.2,0,0,0,1.75-2l.49-5.82a2.2,2.2,0,0,0-2-2.37h0l-.86,10.19h0A2.14,2.14,0,0,0,40.28,93.49Z"/><path class="cls-1" d="M43.33,55.72a2.14,2.14,0,0,1-.62,0,2.2,2.2,0,0,1-2-2.37l1.11-13.14a2.2,2.2,0,1,1,4.38.37L45.08,53.75A2.19,2.19,0,0,1,43.33,55.72Z"/><path class="cls-2" d="M45.08,53.75l1.11-13.14a2.2,2.2,0,0,0-2-2.37L42.72,55.75a2.05,2.05,0,0,0,.61,0A2.19,2.19,0,0,0,45.08,53.75Z"/><path class="cls-1" d="M21.1,78.26a2.19,2.19,0,0,1-2.63-2.33l1.1-13.14a2.2,2.2,0,1,1,4.38.36l-1.1,13.14A2.2,2.2,0,0,1,21.1,78.26Z"/><path class="cls-2" d="M21.1,78.26a2.2,2.2,0,0,0,1.75-2L24,63.15a2.19,2.19,0,0,0-2-2.37L20.47,78.3h0A2.18,2.18,0,0,0,21.1,78.26Z"/><path class="cls-1" d="M19.88,93.49a2.22,2.22,0,0,1-2.63-2.34l.49-5.82a2.2,2.2,0,0,1,4.38.37l-.49,5.82A2.21,2.21,0,0,1,19.88,93.49Z"/><path class="cls-2" d="M19.88,93.49a2.21,2.21,0,0,0,1.75-2l.49-5.82a2.2,2.2,0,0,0-2-2.37h0l-.87,10.19h0A2.19,2.19,0,0,0,19.88,93.49Z"/><path class="cls-1" d="M22.93,55.72a2.14,2.14,0,0,1-.62,0,2.2,2.2,0,0,1-2-2.37l1.1-13.14a2.2,2.2,0,1,1,4.38.37l-1.1,13.14A2.2,2.2,0,0,1,22.93,55.72Z"/><path class="cls-2" d="M24.68,53.75l1.1-13.14a2.19,2.19,0,0,0-2-2.37L22.31,55.75a2.12,2.12,0,0,0,.62,0A2.2,2.2,0,0,0,24.68,53.75Z"/><path class="cls-3" d="M71.67,24.27a11.73,11.73,0,0,0-4.2.78,22.53,22.53,0,0,0,.31-3.7C67.78,9.56,58.6,0,47.28,0,36.56,0,27.76,8.56,26.85,19.48a13.53,13.53,0,0,0-2-.15A14.21,14.21,0,0,0,11,31.46H8.64a9,9,0,0,0,0,18h63A12.35,12.35,0,0,0,83.76,36.85,12.34,12.34,0,0,0,71.67,24.27Z"/><path class="cls-4" d="M83.76,36.85A12.34,12.34,0,0,0,71.67,24.27a11.73,11.73,0,0,0-4.2.78,22.53,22.53,0,0,0,.31-3.7C67.78,9.56,58.6,0,47.28,0a20.06,20.06,0,0,0-5.4.75V49.44H71.67A12.35,12.35,0,0,0,83.76,36.85Z"/><path class="cls-4" d="M83.76,36.85A12.34,12.34,0,0,0,71.67,24.27a11.73,11.73,0,0,0-4.2.78,22.53,22.53,0,0,0,.31-3.7A21.69,21.69,0,0,0,61.53,6L19.8,49.44H71.67A12.35,12.35,0,0,0,83.76,36.85Z"/><path class="cls-4" d="M83.76,36.85a12.69,12.69,0,0,0-5.28-10.39H12.77a14.91,14.91,0,0,0-1.77,5H8.64a8.84,8.84,0,0,0-8.64,9,9.26,9.26,0,0,0,.62,3.34c0,.06.05.13.08.19a8.67,8.67,0,0,0,7.94,5.46h63A12.35,12.35,0,0,0,83.76,36.85Z"/><path class="cls-4" d="M28.57,12.6a21.88,21.88,0,0,0-1.72,6.88,13.53,13.53,0,0,0-2-.15A14.21,14.21,0,0,0,11,31.46H8.64a9,9,0,0,0,0,18H64Z"/></g></g></svg>