<svg xmlns="http://www.w3.org/2000/svg" viewBox="0 0 468.69 147.93"><defs><style>.cls-1,.cls-3{fill:#fff;}.cls-2{fill:#026938;}.cls-3{font-size:58px;font-family:HighwayGothic, Highway Gothic;}</style></defs><title>roadsign</title><g id="Layer_2" data-name="Layer 2"><g id="Layer_1-2" data-name="Layer 1"><path class="cls-1" d="M26.08.35H435.81c13.85,0,25.08,4,25.08,8.84V138.75c0,4.87-11.23,8.83-25.08,8.83H26.08c-13.85,0-25.08-4-25.08-8.83V9.19C1,4.31,12.23.35,26.08.35Z"/><path class="cls-2" d="M435.81,147.93H26.08C11.7,147.93,0,143.81,0,138.74V9.19C0,4.12,11.7,0,26.08,0H435.81c14.38,0,26.08,4.12,26.08,9.19V138.74C461.89,143.81,450.19,147.93,435.81,147.93ZM26.08.7C12.8.7,2,4.51,2,9.19V138.74c0,4.68,10.8,8.49,24.08,8.49H435.81c13.28,0,24.08-3.81,24.08-8.49V9.19c0-4.68-10.8-8.49-24.08-8.49Z"/><rect class="cls-2" x="12.39" y="10.79" width="437.11" height="124.9" rx="21.83"/><polygon class="cls-1" points="430.83 73.28 407.54 103.78 396.38 103.78 396.18 103.61 416.31 77.48 373.92 77.45 373.92 69 416.31 69.02 396.22 42.86 396.42 42.69 407.57 42.7 430.83 73.23 430.81 73.25 430.83 73.28"/><text class="cls-3" transform="translate(33.03 89.28)">get adventure</text></g></g></svg>