<svg xmlns="http://www.w3.org/2000/svg" viewBox="0 0 85.84 90.81"><defs><style>.cls-1{fill:#a5d9ea;}.cls-2{opacity:0.06;}.cls-3{fill:#79ccf2;}</style></defs><title>snowy</title><g id="Layer_2" data-name="Layer 2"><g id="Layer_1-2" data-name="Layer 1"><path class="cls-1" d="M27,58.06a3.57,3.57,0,1,1-3-4.07A3.57,3.57,0,0,1,27,58.06Z"/><path class="cls-2" d="M24.07,54a3.41,3.41,0,0,0-.55-.05v7.13A3.56,3.56,0,0,0,24.07,54Z"/><path class="cls-2" d="M23,61a3.57,3.57,0,0,0,3-6.15l-5,5A3.57,3.57,0,0,0,23,61Z"/><path class="cls-2" d="M23,61a3.57,3.57,0,0,0,4.08-3,3.31,3.31,0,0,0,0-.77H20A3.57,3.57,0,0,0,23,61Z"/><path class="cls-2" d="M26.14,59.92l-5-5a3.56,3.56,0,1,0,5,5Z"/><path class="cls-1" d="M23.75,72.94a3.56,3.56,0,1,1-3-4.08A3.57,3.57,0,0,1,23.75,72.94Z"/><path class="cls-2" d="M20.78,68.86a3.41,3.41,0,0,0-.55,0v7.13a3.56,3.56,0,0,0,.55-7.08Z"/><path class="cls-2" d="M19.67,75.9a3.57,3.57,0,0,0,3-6.15l-5,5A3.57,3.57,0,0,0,19.67,75.9Z"/><path class="cls-2" d="M19.67,75.9a3.57,3.57,0,0,0,4.08-3,3.4,3.4,0,0,0,0-.78H16.67A3.56,3.56,0,0,0,19.67,75.9Z"/><path class="cls-2" d="M22.85,74.79l-5-5a3.52,3.52,0,0,0-1.11,2.07,3.56,3.56,0,0,0,6.14,3Z"/><path class="cls-1" d="M20.46,87.81a3.56,3.56,0,1,1-3-4.08A3.57,3.57,0,0,1,20.46,87.81Z"/><path class="cls-2" d="M17.49,83.73a3.41,3.41,0,0,0-.55,0v7.13a3.56,3.56,0,0,0,.55-7.08Z"/><path class="cls-2" d="M16.38,90.77a3.57,3.57,0,0,0,3-6.15l-5,5A3.57,3.57,0,0,0,16.38,90.77Z"/><path class="cls-2" d="M16.38,90.77a3.57,3.57,0,0,0,4.08-3,4,4,0,0,0,0-.77H13.38A3.56,3.56,0,0,0,16.38,90.77Z"/><path class="cls-2" d="M19.56,89.66l-5-5a3.52,3.52,0,0,0-1.11,2.07,3.56,3.56,0,0,0,6.14,3Z"/><path class="cls-1" d="M45.51,58.06a3.56,3.56,0,1,1-3-4.07A3.56,3.56,0,0,1,45.51,58.06Z"/><path class="cls-2" d="M42.55,54a3.64,3.64,0,0,0-.56-.05v7.13A3.56,3.56,0,0,0,42.55,54Z"/><path class="cls-2" d="M41.43,61a3.57,3.57,0,0,0,3-6.15l-5,5A3.57,3.57,0,0,0,41.43,61Z"/><path class="cls-2" d="M41.43,61a3.56,3.56,0,0,0,4.08-3,4,4,0,0,0,0-.77H38.43A3.57,3.57,0,0,0,41.43,61Z"/><path class="cls-2" d="M44.62,59.92l-5-5a3.57,3.57,0,1,0,5,5Z"/><path class="cls-1" d="M42.22,72.94a3.56,3.56,0,1,1-3-4.08A3.56,3.56,0,0,1,42.22,72.94Z"/><path class="cls-2" d="M39.26,68.86a3.64,3.64,0,0,0-.56,0v7.13a3.56,3.56,0,0,0,.56-7.08Z"/><path class="cls-2" d="M38.14,75.9a3.57,3.57,0,0,0,3-6.15l-5,5A3.54,3.54,0,0,0,38.14,75.9Z"/><path class="cls-2" d="M38.14,75.9a3.56,3.56,0,0,0,4.08-3,4.08,4.08,0,0,0,0-.78H35.14A3.56,3.56,0,0,0,38.14,75.9Z"/><path class="cls-2" d="M41.33,74.79l-5-5a3.57,3.57,0,1,0,5,5Z"/><path class="cls-1" d="M38.93,87.81a3.56,3.56,0,1,1-3-4.08A3.56,3.56,0,0,1,38.93,87.81Z"/><path class="cls-2" d="M36,83.73a3.53,3.53,0,0,0-.56,0v7.13A3.56,3.56,0,0,0,36,83.73Z"/><path class="cls-2" d="M34.85,90.77a3.57,3.57,0,0,0,3-6.15l-5,5A3.54,3.54,0,0,0,34.85,90.77Z"/><path class="cls-2" d="M34.85,90.77a3.56,3.56,0,0,0,4.08-3A4,4,0,0,0,39,87H31.85A3.56,3.56,0,0,0,34.85,90.77Z"/><path class="cls-2" d="M38,89.66l-5-5a3.57,3.57,0,1,0,5,5Z"/><path class="cls-1" d="M64.26,58.06a3.56,3.56,0,1,1-3-4.07A3.56,3.56,0,0,1,64.26,58.06Z"/><path class="cls-2" d="M61.3,54a3.64,3.64,0,0,0-.56-.05v7.13A3.56,3.56,0,0,0,61.3,54Z"/><path class="cls-2" d="M60.18,61a3.57,3.57,0,0,0,3-6.15l-5,5A3.57,3.57,0,0,0,60.18,61Z"/><path class="cls-2" d="M60.18,61a3.56,3.56,0,0,0,4.08-3,4,4,0,0,0,0-.77H57.18A3.57,3.57,0,0,0,60.18,61Z"/><path class="cls-2" d="M63.37,59.92l-5-5a3.57,3.57,0,1,0,5,5Z"/><path class="cls-1" d="M61,72.94a3.56,3.56,0,1,1-3-4.08A3.56,3.56,0,0,1,61,72.94Z"/><path class="cls-2" d="M58,68.86a3.64,3.64,0,0,0-.56,0v7.13A3.56,3.56,0,0,0,58,68.86Z"/><path class="cls-2" d="M56.89,75.9a3.57,3.57,0,0,0,3-6.15l-5,5A3.54,3.54,0,0,0,56.89,75.9Z"/><path class="cls-2" d="M56.89,75.9a3.56,3.56,0,0,0,4.08-3,4.08,4.08,0,0,0,0-.78H53.89A3.56,3.56,0,0,0,56.89,75.9Z"/><path class="cls-2" d="M60.08,74.79l-5-5a3.57,3.57,0,1,0,5,5Z"/><circle class="cls-1" cx="54.16" cy="87.25" r="3.56" transform="translate(-9.05 6.32) rotate(-6.16)"/><path class="cls-2" d="M54.72,83.73a3.53,3.53,0,0,0-.56,0v7.13a3.56,3.56,0,0,0,.56-7.08Z"/><path class="cls-2" d="M53.6,90.77a3.57,3.57,0,0,0,3-6.15l-5,5A3.54,3.54,0,0,0,53.6,90.77Z"/><path class="cls-2" d="M53.6,90.77a3.56,3.56,0,0,0,4.08-3,4,4,0,0,0,0-.77H50.6A3.56,3.56,0,0,0,53.6,90.77Z"/><path class="cls-2" d="M56.79,89.66l-5-5a3.57,3.57,0,1,0,5,5Z"/><path class="cls-3" d="M73.45,24.87a12.07,12.07,0,0,0-4.3.8,23.64,23.64,0,0,0,.32-3.79C69.47,9.8,60.06,0,48.45,0c-11,0-20,8.78-20.93,20a14.24,14.24,0,0,0-2.08-.15A14.56,14.56,0,0,0,11.27,32.24H8.85a9.22,9.22,0,0,0,0,18.43h64.6a12.66,12.66,0,0,0,12.39-12.9A12.66,12.66,0,0,0,73.45,24.87Z"/><path class="cls-2" d="M85.84,37.77a12.66,12.66,0,0,0-12.39-12.9,12.07,12.07,0,0,0-4.3.8,23.64,23.64,0,0,0,.32-3.79C69.47,9.8,60.06,0,48.45,0a20.24,20.24,0,0,0-5.53.77v49.9H73.45A12.66,12.66,0,0,0,85.84,37.77Z"/><path class="cls-2" d="M85.84,37.77a12.66,12.66,0,0,0-12.39-12.9,12.07,12.07,0,0,0-4.3.8,23.64,23.64,0,0,0,.32-3.79A22.26,22.26,0,0,0,63.06,6.15L20.29,50.67H73.45A12.66,12.66,0,0,0,85.84,37.77Z"/><path class="cls-2" d="M85.84,37.77a13,13,0,0,0-5.41-10.65H13.09a15.19,15.19,0,0,0-1.82,5.12H8.85A9.06,9.06,0,0,0,0,41.45a9.41,9.41,0,0,0,.64,3.42,1.19,1.19,0,0,0,.08.2,8.88,8.88,0,0,0,8.13,5.6h64.6A12.66,12.66,0,0,0,85.84,37.77Z"/><path class="cls-2" d="M29.28,12.92a22.55,22.55,0,0,0-1.76,7,14.24,14.24,0,0,0-2.08-.15A14.56,14.56,0,0,0,11.27,32.24H8.85a9.22,9.22,0,0,0,0,18.43H65.54Z"/></g></g></svg>