<svg xmlns="http://www.w3.org/2000/svg" viewBox="0 0 68.78 68.78"><defs><style>.cls-1{fill:#ffe926;}.cls-2{opacity:0.06;}</style></defs><title>sunny</title><g id="Layer_2" data-name="Layer 2"><g id="Layer_1-2" data-name="Layer 1"><circle class="cls-1" cx="34.39" cy="34.39" r="15.9"/><path class="cls-1" d="M47.85,47.85a2.46,2.46,0,0,1,3.46,0l7.39,7.4a2.44,2.44,0,0,1-3.45,3.45l-7.4-7.39A2.46,2.46,0,0,1,47.85,47.85Z"/><path class="cls-1" d="M54.14,32.66A2.47,2.47,0,0,1,55.87,32H66.33a2.44,2.44,0,1,1,0,4.88H55.87a2.45,2.45,0,0,1-1.73-4.17Z"/><path class="cls-1" d="M47.85,17.47l7.4-7.4a2.44,2.44,0,0,1,3.45,3.46l-7.39,7.39a2.44,2.44,0,1,1-3.46-3.45Z"/><path class="cls-1" d="M32.66.72A2.4,2.4,0,0,1,34.39,0a2.44,2.44,0,0,1,2.44,2.44V12.9a2.44,2.44,0,1,1-4.88,0V2.44A2.43,2.43,0,0,1,32.66.72Z"/><path class="cls-1" d="M10.07,10.07a2.46,2.46,0,0,1,3.46,0l7.39,7.4a2.44,2.44,0,0,1-3.45,3.45l-7.4-7.39A2.46,2.46,0,0,1,10.07,10.07Z"/><path class="cls-1" d="M.72,32.66A2.43,2.43,0,0,1,2.44,32H12.91a2.44,2.44,0,1,1,0,4.88H2.44A2.44,2.44,0,0,1,0,34.39,2.4,2.4,0,0,1,.72,32.66Z"/><path class="cls-1" d="M10.07,55.25l7.4-7.4a2.44,2.44,0,1,1,3.45,3.46L13.53,58.7a2.44,2.44,0,0,1-3.46-3.45Z"/><path class="cls-1" d="M32.66,54.14a2.45,2.45,0,0,1,4.17,1.73V66.33a2.44,2.44,0,1,1-4.88,0V55.87A2.47,2.47,0,0,1,32.66,54.14Z"/><g class="cls-2"><path d="M23.14,45.63a15.89,15.89,0,0,0,22.49,0L23.14,23.14A15.9,15.9,0,0,0,23.14,45.63Z"/><path d="M47.85,51.31l7.4,7.39a2.43,2.43,0,0,0,3.45,0h0L47.85,47.85h0A2.46,2.46,0,0,0,47.85,51.31Z"/><path d="M10.07,13.53l7.4,7.39a2.43,2.43,0,0,0,3.45,0h0L10.07,10.07h0A2.46,2.46,0,0,0,10.07,13.53Z"/><path d="M12.9,36.83a2.44,2.44,0,1,0,0-4.88H2.44a2.43,2.43,0,0,0-1.72.71A2.4,2.4,0,0,0,0,34.39a2.44,2.44,0,0,0,2.44,2.44Z"/><path d="M13.53,58.7l7.39-7.39a2.44,2.44,0,1,0-3.45-3.46l-7.4,7.4a2.44,2.44,0,0,0,3.46,3.45Z"/><path d="M32,66.33a2.44,2.44,0,1,0,4.88,0V55.87a2.45,2.45,0,0,0-4.17-1.73A2.47,2.47,0,0,0,32,55.87Z"/></g><g class="cls-2"><path d="M34.39,50.29a15.9,15.9,0,0,0,15.9-15.9H18.48A15.9,15.9,0,0,0,34.39,50.29Z"/><path d="M55.87,36.83H66.33a2.45,2.45,0,0,0,2.45-2.44H53.43A2.44,2.44,0,0,0,55.87,36.83Z"/><path d="M2.44,36.83H12.9a2.45,2.45,0,0,0,2.45-2.44H0A2.44,2.44,0,0,0,2.44,36.83Z"/><path d="M20.92,51.31a2.44,2.44,0,1,0-3.45-3.46l-7.4,7.4a2.45,2.45,0,1,0,3.46,3.46Z"/><path d="M36.83,66.33V55.87a2.44,2.44,0,1,0-4.88,0V66.33a2.44,2.44,0,1,0,4.88,0Z"/><path d="M55.25,58.7a2.44,2.44,0,1,0,3.45-3.45l-7.39-7.4a2.45,2.45,0,0,0-3.46,3.46Z"/></g><g class="cls-2"><path d="M50.29,34.39a15.9,15.9,0,0,1-15.9,15.9V18.48A15.9,15.9,0,0,1,50.29,34.39Z"/><path d="M36.83,55.87V66.33a2.45,2.45,0,0,1-2.44,2.45h0V53.43h0A2.44,2.44,0,0,1,36.83,55.87Z"/><path d="M36.83,2.44V12.9a2.45,2.45,0,0,1-2.44,2.45h0V0h0A2.44,2.44,0,0,1,36.83,2.44Z"/><path d="M51.31,20.92a2.44,2.44,0,1,1-3.46-3.45l7.4-7.4a2.45,2.45,0,1,1,3.46,3.46Z"/><path d="M66.33,36.83H55.87a2.44,2.44,0,1,1,0-4.88H66.33a2.44,2.44,0,1,1,0,4.88Z"/><path d="M58.7,55.25a2.44,2.44,0,1,1-3.45,3.45l-7.4-7.39a2.45,2.45,0,0,1,3.46-3.46Z"/></g><g class="cls-2"><path d="M45.63,45.63a15.89,15.89,0,0,0,0-22.49L23.14,45.63A15.89,15.89,0,0,0,45.63,45.63Z"/><path d="M51.31,20.92l7.39-7.39a2.44,2.44,0,0,0,0-3.46h0L47.85,20.92h0A2.44,2.44,0,0,0,51.31,20.92Z"/><path d="M13.53,58.7l7.39-7.39a2.44,2.44,0,0,0,0-3.46h0L10.07,58.7h0A2.44,2.44,0,0,0,13.53,58.7Z"/><path d="M36.83,55.87a2.44,2.44,0,1,0-4.88,0V66.33a2.44,2.44,0,1,0,4.88,0Z"/><path d="M58.7,55.25l-7.39-7.4a2.45,2.45,0,1,0-3.46,3.46l7.4,7.39a2.44,2.44,0,0,0,3.45-3.45Z"/><path d="M66.33,36.83a2.44,2.44,0,1,0,0-4.88H55.87a2.43,2.43,0,0,0-2.44,2.44,2.42,2.42,0,0,0,2.44,2.44Z"/></g></g></g></svg>