<svg xmlns="http://www.w3.org/2000/svg" viewBox="0 0 83.76 92.56"><defs><style>.cls-1{fill:#99c8eb;}.cls-2{fill:#69a7cd;}.cls-3{fill:#e8e7e7;}.cls-4,.cls-6{opacity:0.06;}.cls-5{fill:#ffe926;}</style></defs><title>thundery</title><g id="Layer_2" data-name="Layer 2"><g id="Layer_1-2" data-name="Layer 1"><path class="cls-1" d="M60.5,77.29a2.14,2.14,0,0,1-.62,0,2.2,2.2,0,0,1-2-2.37L59,61.81a2.2,2.2,0,1,1,4.38.37L62.25,75.32A2.19,2.19,0,0,1,60.5,77.29Z"/><path class="cls-2" d="M60.5,77.29a2.19,2.19,0,0,0,1.75-2l1.11-13.14a2.21,2.21,0,0,0-2-2.38L59.87,77.32h0A2.14,2.14,0,0,0,60.5,77.29Z"/><path class="cls-1" d="M59.29,92.51a2.19,2.19,0,0,1-2.63-2.34l.48-5.81a2.21,2.21,0,0,1,2.38-2,2.19,2.19,0,0,1,2,2.37L61,90.54A2.18,2.18,0,0,1,59.29,92.51Z"/><path class="cls-2" d="M59.29,92.51a2.18,2.18,0,0,0,1.74-2l.49-5.82a2.19,2.19,0,0,0-2-2.37h0l-.86,10.2h0A2.21,2.21,0,0,0,59.29,92.51Z"/><path class="cls-1" d="M62.34,54.74a2.19,2.19,0,0,1-2.63-2.34l1.1-13.14a2.2,2.2,0,0,1,4.38.37l-1.1,13.14A2.2,2.2,0,0,1,62.34,54.74Z"/><path class="cls-2" d="M64.09,52.77l1.1-13.14a2.2,2.2,0,0,0-2-2.37L61.72,54.78a2.14,2.14,0,0,0,.62,0A2.2,2.2,0,0,0,64.09,52.77Z"/><path class="cls-1" d="M22.42,77.29A2.22,2.22,0,0,1,19.79,75l1.1-13.14a2.2,2.2,0,1,1,4.38.37l-1.1,13.14A2.21,2.21,0,0,1,22.42,77.29Z"/><path class="cls-2" d="M22.42,77.29a2.21,2.21,0,0,0,1.75-2l1.1-13.14a2.2,2.2,0,0,0-2-2.38L21.79,77.32h0A2.19,2.19,0,0,0,22.42,77.29Z"/><path class="cls-1" d="M21.2,92.51a2.14,2.14,0,0,1-.62,0,2.21,2.21,0,0,1-2-2.38l.49-5.81a2.2,2.2,0,0,1,4.38.36L23,90.54A2.2,2.2,0,0,1,21.2,92.51Z"/><path class="cls-2" d="M21.2,92.51a2.2,2.2,0,0,0,1.75-2l.49-5.82a2.2,2.2,0,0,0-2-2.37h0l-.86,10.2h0A2.14,2.14,0,0,0,21.2,92.51Z"/><path class="cls-1" d="M24.25,54.74a2.14,2.14,0,0,1-.62,0,2.21,2.21,0,0,1-2-2.38l1.11-13.14a2.19,2.19,0,0,1,4.37.37L26,52.77A2.19,2.19,0,0,1,24.25,54.74Z"/><path class="cls-2" d="M26,52.77l1.1-13.14a2.19,2.19,0,0,0-2-2.37L23.64,54.78a2.07,2.07,0,0,0,.61,0A2.19,2.19,0,0,0,26,52.77Z"/><path class="cls-3" d="M71.67,24.27a11.73,11.73,0,0,0-4.2.78,22.53,22.53,0,0,0,.31-3.7C67.78,9.56,58.6,0,47.28,0,36.56,0,27.76,8.56,26.85,19.48a13.53,13.53,0,0,0-2-.15A14.21,14.21,0,0,0,11,31.46H8.63a9,9,0,0,0,0,18h63A12.35,12.35,0,0,0,83.76,36.85,12.34,12.34,0,0,0,71.67,24.27Z"/><path class="cls-4" d="M83.76,36.85A12.34,12.34,0,0,0,71.67,24.27a11.73,11.73,0,0,0-4.2.78,22.53,22.53,0,0,0,.31-3.7C67.78,9.56,58.6,0,47.28,0a20.06,20.06,0,0,0-5.4.75V49.44H71.67A12.35,12.35,0,0,0,83.76,36.85Z"/><path class="cls-4" d="M83.76,36.85A12.34,12.34,0,0,0,71.67,24.27a11.73,11.73,0,0,0-4.2.78,22.53,22.53,0,0,0,.31-3.7A21.69,21.69,0,0,0,61.53,6L19.8,49.44H71.67A12.35,12.35,0,0,0,83.76,36.85Z"/><path class="cls-4" d="M83.76,36.85a12.69,12.69,0,0,0-5.28-10.39H12.77a14.91,14.91,0,0,0-1.77,5H8.63a8.84,8.84,0,0,0-8.63,9,9.26,9.26,0,0,0,.62,3.34c0,.06.05.13.08.19a8.66,8.66,0,0,0,7.93,5.46h63A12.35,12.35,0,0,0,83.76,36.85Z"/><path class="cls-4" d="M28.57,12.6a21.88,21.88,0,0,0-1.72,6.88,13.53,13.53,0,0,0-2-.15A14.21,14.21,0,0,0,11,31.46H8.63a9,9,0,0,0,0,18H64Z"/><polygon class="cls-5" points="43.97 41.8 34.51 62.82 42.13 62.82 39.24 80.69 50.78 56.51 42.4 56.51 43.97 41.8"/><g class="cls-6"><polygon points="42.65 44.75 42.65 54.18 43.97 41.8 42.65 44.75"/><polygon points="42.65 56.51 42.65 73.56 50.78 56.51 42.65 56.51"/></g><polygon class="cls-4" points="42.13 62.82 39.24 80.69 50.78 56.51 45.91 56.51 39.6 62.82 42.13 62.82"/><polygon class="cls-4" points="49.22 59.78 35.88 59.78 34.51 62.82 42.13 62.82 39.24 80.69 49.22 59.78"/><polygon class="cls-4" points="47.1 64.23 37.98 55.11 34.51 62.82 42.13 62.82 39.24 80.69 47.1 64.23"/></g></g></svg>