<?xml version="1.0" encoding="utf-8"?>
<!-- Generator: Adobe Illustrator 24.0.1, SVG Export Plug-In . SVG Version: 6.00 Build 0)  -->
<svg version="1.1" id="Layer_1" xmlns="http://www.w3.org/2000/svg" xmlns:xlink="http://www.w3.org/1999/xlink" x="0px" y="0px"
	 viewBox="0 0 468.7 147.9" style="enable-background:new 0 0 468.7 147.9;" xml:space="preserve">
<style type="text/css">
	.st0{fill:#FFFFFF;}
	.st1{fill:#026938;}
	.st2{font-family:'HighwayGothic';}
	.st3{font-size:58px;}
</style>
<title>roadsign</title>
<g id="Layer_2_1_">
	<g id="Layer_1-2">
		<path class="st0" d="M26.1,0.3h409.7c13.9,0,25.1,4,25.1,8.8v129.6c0,4.9-11.2,8.8-25.1,8.8H26.1c-13.9,0-25.1-4-25.1-8.8V9.2
			C1,4.3,12.2,0.3,26.1,0.3z"/>
		<path class="st1" d="M435.8,147.9H26.1c-14.4,0-26.1-4.1-26.1-9.2V9.2C0,4.1,11.7,0,26.1,0h409.7c14.4,0,26.1,4.1,26.1,9.2v129.6
			C461.9,143.8,450.2,147.9,435.8,147.9z M26.1,0.7C12.8,0.7,2,4.5,2,9.2v129.6c0,4.7,10.8,8.5,24.1,8.5h409.7
			c13.3,0,24.1-3.8,24.1-8.5V9.2c0-4.7-10.8-8.5-24.1-8.5L26.1,0.7z"/>
		<path class="st1" d="M34.2,10.8h393.5c12.1,0,21.8,9.8,21.8,21.8v81.2c0,12.1-9.8,21.8-21.8,21.8H34.2c-12.1,0-21.8-9.8-21.8-21.8
			V32.6C12.4,20.6,22.2,10.8,34.2,10.8z"/>
		<polygon class="st0" points="430.8,73.3 407.5,103.8 396.4,103.8 396.2,103.6 416.3,77.5 373.9,77.4 373.9,69 416.3,69 
			396.2,42.9 396.4,42.7 407.6,42.7 430.8,73.2 430.8,73.2 		"/>
		<text transform="matrix(1 0 0 1 33.03 89.28)" class="st0 st2 st3">get adventure</text>
	</g>
</g>
</svg>
